<?xml version="1.0" standalone="no"?>
<!DOCTYPE svg PUBLIC "-//W3C//DTD SVG 20010904//EN"
 "http://www.w3.org/TR/2001/REC-SVG-20010904/DTD/svg10.dtd">
<svg version="1.0" xmlns="http://www.w3.org/2000/svg"
 width="260.000000pt" height="260.000000pt" viewBox="0 0 260.000000 260.000000"
 preserveAspectRatio="xMidYMid meet">
<metadata>
Created by potrace 1.11, written by Peter Selinger 2001-2013
</metadata>
<g transform="translate(0.000000,260.000000) scale(0.100000,-0.100000)"
fill="#000000" stroke="none">
<path d="M879 2492 c-164 -55 -312 -244 -373 -480 -17 -63 -32 -77 -103 -93
-29 -7 -53 -17 -53 -23 0 -6 -3 -21 -6 -33 -6 -21 -4 -22 66 -16 l71 6 -6 -44
c-3 -24 -8 -60 -10 -79 -3 -19 -7 -57 -10 -85 -3 -27 -7 -66 -10 -85 -2 -19
-7 -60 -10 -90 -10 -90 -15 -133 -20 -170 -2 -19 -7 -60 -10 -90 -37 -353 -99
-520 -194 -520 -14 0 -47 11 -72 25 l-47 24 -27 -39 c-34 -49 -28 -82 18 -111
65 -41 172 -9 249 75 128 138 185 352 294 1116 9 61 7 60 104 60 97 0 95 -1
104 58 l4 32 -95 0 -95 0 6 51 c4 28 11 72 17 97 6 26 12 56 15 67 2 11 9 34
15 50 43 113 86 167 149 186 60 18 103 5 186 -56 20 -15 24 -14 52 10 123 104
-27 216 -209 157z"/>
<path d="M1137 1660 c-67 -21 -122 -55 -166 -102 -112 -119 -96 -306 32 -378
l42 -24 -35 -9 c-184 -46 -282 -114 -339 -237 -22 -47 -26 -68 -25 -150 1
-123 25 -188 99 -269 96 -103 225 -153 379 -147 108 5 127 10 223 56 134 66
240 180 282 303 18 52 22 143 7 185 -7 20 -4 22 36 23 73 2 95 7 151 33 66 32
132 96 160 156 28 63 30 182 2 228 -31 51 -87 85 -150 90 -49 4 -57 2 -83 -24
-19 -20 -28 -39 -28 -59 1 -29 2 -30 63 -36 34 -3 73 -14 88 -23 57 -38 61
-140 6 -184 -51 -40 -109 -50 -326 -53 -143 -3 -233 -19 -311 -55 -133 -62
-200 -199 -144 -291 16 -27 26 -33 53 -33 44 0 77 33 59 58 -32 46 -43 75 -37
102 13 60 77 85 226 89 l105 2 12 -39 c50 -165 -54 -344 -233 -401 -89 -29
-213 -23 -286 13 -96 48 -150 115 -173 213 -43 186 54 344 244 397 50 14 95
23 126 25 7 1 14 14 16 31 4 27 0 31 -49 55 -118 58 -161 196 -95 307 38 65
130 100 209 79 56 -15 89 -44 119 -103 21 -42 28 -48 47 -42 28 8 67 32 68 42
0 4 2 16 4 27 6 31 -23 81 -65 110 -81 56 -204 70 -313 35z"/>
<path d="M2047 946 c-25 -14 -72 -44 -105 -68 -60 -43 -60 -44 -45 -71 l14
-28 44 25 c57 34 83 33 96 -1 15 -38 3 -184 -27 -348 -2 -11 -6 -36 -9 -55 -4
-19 -22 -106 -41 -194 -20 -87 -34 -159 -32 -161 4 -3 147 31 152 36 2 2 11
54 20 114 9 61 28 164 43 230 23 106 31 128 72 185 25 36 71 91 102 122 61 62
90 69 130 32 24 -22 28 -17 60 65 22 60 19 91 -11 121 -34 34 -85 23 -139 -31
-27 -28 -123 -166 -177 -256 -9 -14 -10 -7 -5 32 4 28 6 90 6 139 -1 84 -3 90
-29 112 -34 30 -61 30 -119 0z"/>
</g>
</svg>
